<?xml version="1.0" encoding="UTF-8" standalone="no"?>
<!DOCTYPE svg PUBLIC "-//W3C//DTD SVG 1.1//EN" "http://www.w3.org/Graphics/SVG/1.1/DTD/svg11.dtd">
<svg width="100%" height="100%" viewBox="0 0 978 978" version="1.1" xmlns="http://www.w3.org/2000/svg" xmlns:xlink="http://www.w3.org/1999/xlink" xml:space="preserve" xmlns:serif="http://www.serif.com/" style="fill-rule:evenodd;clip-rule:evenodd;stroke-linejoin:round;stroke-miterlimit:2;">
    <g transform="matrix(1,0,0,1,-58.6047,-39.4186)">
        <g transform="matrix(1,0,0,1,534.419,-429.767)">
            <path d="M369.07,606.279L161.859,606.279C125.255,606.279 95.581,576.605 95.581,540.001C95.581,540 95.581,540 95.581,539.999C95.581,522.421 102.564,505.563 114.994,493.133C127.423,480.704 144.281,473.721 161.859,473.721L414.419,473.721C437.548,473.721 459.73,482.909 476.085,499.264C492.44,515.619 501.628,537.801 501.628,560.93L501.628,813.489C501.628,831.067 494.645,847.926 482.216,860.355C469.786,872.785 452.928,879.767 435.35,879.767L435.348,879.767C398.743,879.767 369.07,850.094 369.07,813.489C369.07,732.547 369.07,606.279 369.07,606.279ZM-343.256,1309.54L-136.045,1309.54C-99.441,1309.54 -69.767,1339.21 -69.767,1375.81L-69.767,1375.82C-69.767,1393.39 -76.75,1410.25 -89.18,1422.68C-101.609,1435.11 -118.467,1442.09 -136.045,1442.09L-388.605,1442.09C-411.734,1442.09 -433.916,1432.9 -450.271,1416.55C-466.626,1400.19 -475.814,1378.01 -475.814,1354.88L-475.814,1102.33C-475.814,1084.75 -468.831,1067.89 -456.402,1055.46C-443.972,1043.03 -427.114,1036.05 -409.536,1036.05L-409.534,1036.05C-372.929,1036.05 -343.256,1065.72 -343.256,1102.33L-343.256,1309.54ZM364.535,1314.07L364.535,1106.86C364.535,1070.26 394.209,1040.58 430.813,1040.58L430.815,1040.58C448.393,1040.58 465.251,1047.56 477.681,1059.99C490.11,1072.42 497.093,1089.28 497.093,1106.86L497.093,1359.42C497.093,1382.55 487.905,1404.73 471.55,1421.09C455.195,1437.44 433.013,1446.63 409.884,1446.63L157.325,1446.63C139.747,1446.63 122.888,1439.64 110.459,1427.22C98.029,1414.79 91.047,1397.93 91.047,1380.35L91.047,1380.35C91.047,1343.74 120.72,1314.07 157.325,1314.07L364.535,1314.07ZM-338.721,601.744L-338.721,808.955C-338.721,845.559 -368.395,875.233 -404.999,875.233C-405,875.233 -405,875.233 -405.001,875.233C-422.579,875.233 -439.437,868.25 -451.867,855.82C-464.296,843.391 -471.279,826.533 -471.279,808.955L-471.279,556.395C-471.279,533.266 -462.091,511.084 -445.736,494.729C-429.381,478.374 -407.199,469.186 -384.07,469.186L-131.511,469.186C-113.933,469.186 -97.074,476.169 -84.645,488.598C-72.215,501.028 -65.233,517.886 -65.233,535.464L-65.233,535.466C-65.233,572.071 -94.906,601.744 -131.511,601.744C-212.453,601.744 -338.721,601.744 -338.721,601.744Z" style="fill:white;"/>
        </g>
    </g>
</svg>
